<svg width="58" height="40" viewBox="0 0 58 40" fill="none" xmlns="http://www.w3.org/2000/svg">
<path d="M16.5819 40L16.5791 39.9945L3.03424 16.6666H0L13.5449 39.9952L13.5418 40H16.5819Z" fill="#E00606"/>
<path d="M28.7151 40L28.7123 39.9945L15.1672 16.6666H12.1339L25.6788 39.9945L25.675 40H28.7151Z" fill="#E00606"/>
<path d="M21.2338 16.6666H18.2006L31.7455 39.9945L31.7414 40H34.7815L21.2338 16.6666Z" fill="#E00606"/>
<path d="M39.8003 4.76837e-05H36.7661L25.6942 19.0706L27.2113 21.6828L39.8003 4.76837e-05Z" fill="#E00606"/>
<path d="M22.6486 40L22.6456 39.9945L9.10072 16.6666H6.06749L19.6124 39.9945L19.6086 40H22.6486Z" fill="#E00606"/>
<path d="M30.2446 26.9066L45.8668 5.53131e-05H42.8336L28.7274 24.2942L28.7439 24.3219L30.2446 26.9066Z" fill="#E00606"/>
<path d="M33.2778 32.1315L51.9335 3.43323e-05H48.9003L31.7607 29.5181L31.7771 29.5457L33.2778 32.1315Z" fill="#E00606"/>
<path d="M58 0H54.9668L34.7942 34.7429L34.8104 34.7706L36.3113 37.3554L58 0Z" fill="#E00606"/>
</svg>
